<?xml version="1.0" encoding="iso-8859-1"?>
<!-- Generator: Adobe Illustrator 16.0.0, SVG Export Plug-In . SVG Version: 6.00 Build 0)  -->
<!DOCTYPE svg PUBLIC "-//W3C//DTD SVG 1.1//EN" "http://www.w3.org/Graphics/SVG/1.1/DTD/svg11.dtd">
<svg version="1.1" id="Capa_1" xmlns="http://www.w3.org/2000/svg" xmlns:xlink="http://www.w3.org/1999/xlink" x="0px" y="0px"
	 width="331.655px" height="331.655px" viewBox="0 0 331.655 331.655" style="enable-background:new 0 0 331.655 331.655;"
	 xml:space="preserve">
<g>
	<path d="M261.271,40.062c-3.135-3.843-5.729-8.281-7.692-12.839C241.143-1.599,207.294,0.017,207.294,0.017h-80.438
		c-26.325,0-39.229,14.543-45.546,28.318c-1.99,4.348-4.684,8.557-7.92,12.202c-5.341,6.041-16.57,7.194-22.337,8.983
		C40.961,52.648,35.458,60.064,29.723,73.07c0,0-2.486,5.615-5.531,12.538c-3.047,6.918,5.99,12.532,20.207,12.532h244.53
		c14.22,0,22.267-5.915,17.967-13.217l-7.771-13.21c-7.218-12.256-12.069-16.664-19.695-22.188
		C276.451,47.37,266.525,46.476,261.271,40.062z M151.917,25.458h54.482c9.386,0,15.438,2.966,19.329,6.906
		c3.225,3.267,3.225,6.959,1.195,10.25c-3.267,5.29-20.194,6.905-34.42,6.905h-52.323c-14.216,0-30.462-1.597-33.002-6.407
		c-1.525-2.895-1.384-6.852,0.814-10.304C114.142,23.141,138.077,25.458,151.917,25.458z"/>
	<path d="M259.283,115.734H73.39c-14.216,0-24.292,11.428-22.527,25.533l20.744,164.856c1.766,14.105,14.736,25.532,28.949,25.532
		h132.991c14.213,0,27.105-11.439,28.793-25.557l19.642-164.813C283.657,127.168,273.509,115.734,259.283,115.734z M128.583,295.662
		c0,6.936-6.044,12.574-13.003,12.574c-6.941,0-12.574-5.639-12.574-12.574V151.764c0-6.96,5.632-12.616,12.574-12.616
		c6.965,0,13.003,5.656,13.003,12.616V295.662z M180.62,295.662c0,6.936-5.656,12.574-12.586,12.574
		c-6.953,0-13.027-5.639-13.027-12.574V151.764c0-6.96,6.074-12.616,13.027-12.616c6.93,0,12.586,5.656,12.586,12.616V295.662z
		 M229.812,295.662c0,6.936-5.656,12.574-12.586,12.574c-6.953,0-13.03-5.639-13.03-12.574V151.764
		c0-6.96,6.077-12.616,13.03-12.616c6.93,0,12.586,5.656,12.586,12.616V295.662z"/>
</g>
<g>
</g>
<g>
</g>
<g>
</g>
<g>
</g>
<g>
</g>
<g>
</g>
<g>
</g>
<g>
</g>
<g>
</g>
<g>
</g>
<g>
</g>
<g>
</g>
<g>
</g>
<g>
</g>
<g>
</g>
</svg>
